<svg width="390" height="139" viewBox="0 0 390 139" fill="none" xmlns="http://www.w3.org/2000/svg">
<rect x="-125.946" y="34.5596" width="152.789" height="34.5594" rx="4" fill="#D12510"/>
<rect x="103.238" y="69.1187" width="152.789" height="34.5594" rx="4" fill="#97B1B2"/>
<rect x="332.422" y="103.679" width="152.789" height="34.5594" rx="4" fill="#97B1B2"/>
<rect x="26.8434" y="34.5596" width="152.789" height="34.5594" rx="4" fill="#FEC05C"/>
<rect x="179.632" y="103.679" width="152.789" height="34.5594" rx="4" fill="#FEC05C"/>
<rect x="-125.946" y="103.679" width="152.789" height="34.5594" rx="4" fill="#FEC05C"/>
<rect x="256.027" width="152.789" height="34.5594" rx="4" fill="#FEC05C"/>
<rect x="332.422" y="34.5596" width="152.789" height="34.5594" rx="4" fill="#D12510"/>
<rect x="256.027" y="69.1187" width="152.789" height="34.5594" rx="4" fill="#0165B1"/>
<rect x="-49.5511" y="69.1187" width="152.789" height="34.5594" rx="4" fill="#0165B1"/>
<rect x="103.238" width="152.789" height="34.5594" rx="4" fill="#0165B1"/>
<rect x="179.632" y="34.5596" width="152.789" height="34.5594" rx="4" fill="#111111"/>
<rect x="26.8434" y="103.679" width="152.789" height="34.5594" rx="4" fill="#111111"/>
</svg>
