<svg width="358" height="358" viewBox="0 0 358 358" fill="none" xmlns="http://www.w3.org/2000/svg">
<path d="M302.627 356.616L54.4884 356.616C49.1552 356.616 45.1809 356.616 41.9919 356.393C38.8087 356.17 36.4415 355.727 34.3211 354.857C29.7798 352.994 25.9361 349.755 23.3294 345.595C22.1124 343.653 21.2742 341.396 20.5149 338.296C19.7542 335.191 19.0798 331.274 18.1753 326.019C16.9434 318.86 16.0249 313.521 15.6405 309.266C15.2564 305.015 15.4112 301.895 16.2955 299.17C18.1876 293.338 22.2837 288.477 27.7099 285.623C30.2459 284.29 33.2937 283.608 37.5483 283.266C41.8068 282.923 47.2248 282.922 54.4884 282.922L302.627 282.922C309.891 282.922 315.309 282.923 319.568 283.266C323.822 283.608 326.87 284.29 329.406 285.623C334.832 288.477 338.928 293.338 340.82 299.17C341.705 301.895 341.859 305.015 341.475 309.266C341.091 313.521 340.172 318.86 338.94 326.019C338.036 331.275 337.362 335.191 336.601 338.296C335.842 341.396 335.003 343.653 333.786 345.595C331.18 349.755 327.336 352.994 322.795 354.857C320.674 355.727 318.307 356.17 315.124 356.393C311.935 356.616 307.961 356.616 302.627 356.616Z" fill="#6A6A6A" stroke="url(#paint0_radial_3624_8)"/>
<g filter="url(#filter0_f_3624_8)">
<path d="M339.433 306.214C336.349 324.133 320.809 337.227 302.627 337.227L54.4884 337.227C36.3063 337.227 20.7663 324.133 17.6826 306.214V306.214C13.755 283.392 31.3305 262.533 54.4884 262.533L302.627 262.533C325.785 262.533 343.361 283.392 339.433 306.214V306.214Z" fill="#010101" fill-opacity="0.2"/>
</g>
<g filter="url(#filter1_b_3624_8)">
<path d="M8.97908 109.109C11.1956 57.4891 12.3039 31.6789 28.838 15.8395C45.3722 0 71.2062 0 122.874 0H235.126C286.794 0 312.628 0 329.162 15.8395C345.696 31.6789 346.804 57.4891 349.021 109.109L352.895 199.332C355.292 255.167 356.491 283.084 339.66 300.653C322.83 318.222 294.886 318.222 239 318.222H119C63.1135 318.222 35.1702 318.222 18.3395 300.653C1.50878 283.084 2.70753 255.167 5.10503 199.332L8.97908 109.109Z" fill="url(#paint1_linear_3624_8)"/>
<path d="M122.874 0.5H235.126C260.974 0.5 280.31 0.501024 295.254 2.47562C310.183 4.44833 320.656 8.38321 328.816 16.2005C336.976 24.0178 341.357 34.3126 343.968 49.1433C346.582 63.9883 347.413 83.3069 348.521 109.131L352.395 199.353C353.595 227.285 354.491 248.183 352.99 264.296C351.491 280.394 347.605 291.637 339.299 300.307C330.994 308.977 319.928 313.342 303.908 315.531C287.875 317.721 266.958 317.722 239 317.722H119C91.0424 317.722 70.1253 317.721 54.0915 315.531C38.0721 313.342 27.0062 308.977 18.7006 300.307C10.3949 291.637 6.50875 280.394 5.00953 264.296C3.50897 248.183 4.4052 227.285 5.60457 199.353L9.47862 109.131C10.5875 83.3069 11.418 63.9882 14.0319 49.1433C16.6432 34.3126 21.0238 24.0178 29.1839 16.2005C37.3441 8.38321 47.8174 4.44833 62.7464 2.47562C77.6898 0.501024 97.0264 0.5 122.874 0.5Z" stroke="url(#paint2_radial_3624_8)"/>
</g>
<path d="M110.526 5.36182H247.474C269.242 5.36182 285.519 5.36284 298.096 7.02473C310.659 8.68474 319.46 11.9942 326.314 18.5607C333.169 25.1272 336.853 33.7775 339.051 46.2575C341.252 58.7516 341.952 75.0132 342.886 96.761L347.893 213.26C348.905 236.785 349.66 254.377 348.397 267.94C347.136 281.488 343.867 290.936 336.89 298.219C329.913 305.502 320.614 309.174 307.133 311.016C293.637 312.859 276.028 312.861 252.482 312.861H105.518C81.9719 312.861 64.3632 312.859 50.8673 311.016C37.3857 309.174 28.0869 305.502 21.1099 298.219C14.133 290.936 10.8641 281.488 9.60291 267.94C8.34038 254.377 9.0954 236.785 10.1065 213.26L15.1136 96.7611C16.0483 75.0132 16.7483 58.7516 18.9487 46.2575C21.1466 33.7775 24.8309 25.1272 31.6857 18.5607C38.5405 11.9942 47.3411 8.68474 59.9039 7.02473C72.481 5.36284 88.7576 5.36182 110.526 5.36182Z" fill="url(#paint3_linear_3624_8)" stroke="url(#paint4_radial_3624_8)"/>
<rect x="26.1345" y="13.3174" width="304.847" height="209.822" rx="37.5" fill="url(#paint5_linear_3624_8)" stroke="url(#paint6_radial_3624_8)"/>
<rect x="35.358" y="21.2148" width="286.4" height="193.143" rx="30" fill="url(#paint7_linear_3624_8)"/>
<rect x="35.858" y="21.7148" width="285.4" height="192.143" rx="29.5" stroke="url(#paint8_radial_3624_8)" stroke-opacity="0.8"/>
<mask id="path-9-inside-1_3624_8" fill="white">
<path fill-rule="evenodd" clip-rule="evenodd" d="M234.868 274.909H182.757C178.485 274.909 175.022 271.446 175.022 267.174C175.022 262.902 178.485 259.44 182.757 259.44H234.868C237.924 251.922 245.3 246.622 253.915 246.622H310.93C322.28 246.622 331.481 255.824 331.481 267.174C331.481 278.525 322.28 287.726 310.93 287.726H253.915C245.3 287.726 237.924 282.426 234.868 274.909Z"/>
</mask>
<path fill-rule="evenodd" clip-rule="evenodd" d="M234.868 274.909H182.757C178.485 274.909 175.022 271.446 175.022 267.174C175.022 262.902 178.485 259.44 182.757 259.44H234.868C237.924 251.922 245.3 246.622 253.915 246.622H310.93C322.28 246.622 331.481 255.824 331.481 267.174C331.481 278.525 322.28 287.726 310.93 287.726H253.915C245.3 287.726 237.924 282.426 234.868 274.909Z" fill="url(#paint9_radial_3624_8)"/>
<path d="M234.868 274.909L235.794 274.532L235.541 273.909H234.868V274.909ZM234.868 259.44V260.44H235.541L235.794 259.816L234.868 259.44ZM234.868 273.909H182.757V275.909H234.868V273.909ZM182.757 273.909C179.037 273.909 176.022 270.894 176.022 267.174H174.022C174.022 271.998 177.933 275.909 182.757 275.909V273.909ZM176.022 267.174C176.022 263.455 179.037 260.44 182.757 260.44V258.44C177.933 258.44 174.022 262.35 174.022 267.174H176.022ZM182.757 260.44H234.868V258.44H182.757V260.44ZM235.794 259.816C238.702 252.663 245.721 247.622 253.915 247.622V245.622C244.88 245.622 237.145 251.182 233.942 259.063L235.794 259.816ZM253.915 247.622H310.93V245.622H253.915V247.622ZM310.93 247.622C321.728 247.622 330.481 256.376 330.481 267.174H332.481C332.481 255.271 322.832 245.622 310.93 245.622V247.622ZM330.481 267.174C330.481 277.972 321.728 286.726 310.93 286.726V288.726C322.832 288.726 332.481 279.077 332.481 267.174H330.481ZM310.93 286.726H253.915V288.726H310.93V286.726ZM253.915 286.726C245.721 286.726 238.702 281.685 235.794 274.532L233.942 275.285C237.145 283.166 244.88 288.726 253.915 288.726V286.726Z" fill="url(#paint10_radial_3624_8)" fill-opacity="0.6" mask="url(#path-9-inside-1_3624_8)"/>
<rect x="243.086" y="255.904" width="78.6716" height="22.5407" rx="8" fill="#3E3D3C"/>
<rect x="178.558" y="262.533" width="132.593" height="9.28148" rx="4.64074" fill="#1A1A1A"/>
<rect x="179.058" y="263.033" width="131.593" height="8.28148" rx="4.14074" stroke="url(#paint11_radial_3624_8)" stroke-opacity="0.7"/>
<defs>
<filter id="filter0_f_3624_8" x="0.131714" y="245.533" width="356.852" height="108.694" filterUnits="userSpaceOnUse" color-interpolation-filters="sRGB">
<feFlood flood-opacity="0" result="BackgroundImageFix"/>
<feBlend mode="normal" in="SourceGraphic" in2="BackgroundImageFix" result="shape"/>
<feGaussianBlur stdDeviation="8.5" result="effect1_foregroundBlur_3624_8"/>
</filter>
<filter id="filter1_b_3624_8" x="-116.278" y="-120" width="590.556" height="558.222" filterUnits="userSpaceOnUse" color-interpolation-filters="sRGB">
<feFlood flood-opacity="0" result="BackgroundImageFix"/>
<feGaussianBlur in="BackgroundImageFix" stdDeviation="60"/>
<feComposite in2="SourceAlpha" operator="in" result="effect1_backgroundBlur_3624_8"/>
<feBlend mode="normal" in="SourceGraphic" in2="effect1_backgroundBlur_3624_8" result="shape"/>
</filter>
<radialGradient id="paint0_radial_3624_8" cx="0" cy="0" r="1" gradientUnits="userSpaceOnUse" gradientTransform="translate(-7.9557 329.935) rotate(-3.13677) scale(140.062 39.5071)">
<stop offset="0.0208333" stop-color="white"/>
<stop offset="1" stop-color="white" stop-opacity="0"/>
</radialGradient>
<linearGradient id="paint1_linear_3624_8" x1="179" y1="0" x2="179" y2="318.222" gradientUnits="userSpaceOnUse">
<stop stop-color="#D3B2B5"/>
<stop offset="1" stop-color="#949494"/>
</linearGradient>
<radialGradient id="paint2_radial_3624_8" cx="0" cy="0" r="1" gradientUnits="userSpaceOnUse" gradientTransform="translate(-19.8889 215.463) rotate(-15.0915) scale(257.366 173.881)">
<stop offset="0.0208333" stop-color="white"/>
<stop offset="1" stop-color="white" stop-opacity="0"/>
</radialGradient>
<linearGradient id="paint3_linear_3624_8" x1="179" y1="4.86182" x2="179" y2="313.361" gradientUnits="userSpaceOnUse">
<stop stop-color="#ECB9BB"/>
<stop offset="1" stop-color="#A6A6A6"/>
</linearGradient>
<radialGradient id="paint4_radial_3624_8" cx="0" cy="0" r="1" gradientUnits="userSpaceOnUse" gradientTransform="translate(14.5852 121.543) rotate(7.30248) scale(214.284 144.754)">
<stop offset="0.0208333" stop-color="white"/>
<stop offset="1" stop-color="white" stop-opacity="0"/>
</radialGradient>
<linearGradient id="paint5_linear_3624_8" x1="179" y1="13" x2="179" y2="224" gradientUnits="userSpaceOnUse">
<stop stop-color="#B88586"/>
<stop offset="1" stop-color="#696665"/>
</linearGradient>
<radialGradient id="paint6_radial_3624_8" cx="0" cy="0" r="1" gradientUnits="userSpaceOnUse" gradientTransform="translate(325.294 218.115) rotate(-149.768) scale(332.25 209.993)">
<stop stop-color="#C4C4C4"/>
<stop offset="1" stop-color="white" stop-opacity="0"/>
</radialGradient>
<linearGradient id="paint7_linear_3624_8" x1="178.558" y1="21.2148" x2="178.558" y2="214.358" gradientUnits="userSpaceOnUse">
<stop stop-color="#2D2020"/>
<stop offset="1" stop-color="#1A1A1A" stop-opacity="0.8"/>
</linearGradient>
<radialGradient id="paint8_radial_3624_8" cx="0" cy="0" r="1" gradientUnits="userSpaceOnUse" gradientTransform="translate(44 31.5) rotate(32.9767) scale(356.422 215.893)">
<stop stop-color="#FFF6E4"/>
<stop offset="0.515625" stop-color="white" stop-opacity="0"/>
<stop offset="1" stop-color="#FFF6E7"/>
</radialGradient>
<radialGradient id="paint9_radial_3624_8" cx="0" cy="0" r="1" gradientUnits="userSpaceOnUse" gradientTransform="translate(221.771 269.17) rotate(-129.779) scale(22.2929 34.3305)">
<stop stop-color="#605F5E"/>
<stop offset="1" stop-color="#6D6968"/>
</radialGradient>
<radialGradient id="paint10_radial_3624_8" cx="0" cy="0" r="1" gradientUnits="userSpaceOnUse" gradientTransform="translate(241.647 274.503) rotate(-169.586) scale(67.9064 17.54)">
<stop offset="0.0208333" stop-color="white"/>
<stop offset="1" stop-color="white" stop-opacity="0"/>
</radialGradient>
<radialGradient id="paint11_radial_3624_8" cx="0" cy="0" r="1" gradientUnits="userSpaceOnUse" gradientTransform="translate(275.572 283.085) rotate(-20.9647) scale(112.411 9.6378)">
<stop offset="0.0208333" stop-color="white"/>
<stop offset="1" stop-color="white" stop-opacity="0"/>
</radialGradient>
</defs>
</svg>
