<svg width="145" height="88" viewBox="0 0 145 88" fill="none" xmlns="http://www.w3.org/2000/svg">
<path d="M34.2139 22.9069H61.5622V25.0894H36.7208V41.5149H60.0809V43.6974H36.7208V61.7311H61.8471V63.9135H34.2139V22.9069ZM64.0122 22.9069H66.9179L79.7944 40.9406L92.9558 22.9069L110.857 0L81.4467 42.8359L96.6023 63.9135H93.5826L79.7944 44.7311L65.9494 63.9135H62.9866L78.2561 42.8359L64.0122 22.9069ZM97.6848 25.0894V22.9069H128.851V25.0894H114.493V63.9135H111.986V25.0894H97.6848ZM0 22.9069H3.13366L46.345 87.8286L28.4878 63.9135L2.62088 26.0083L2.50693 63.9135H0V22.9069ZM128.598 61.0724C128.086 61.0724 127.702 60.674 127.702 60.1591C127.702 59.6442 128.086 59.2457 128.598 59.2457C129.116 59.2457 129.494 59.6442 129.494 60.1591C129.494 60.674 129.116 61.0724 128.598 61.0724ZM131.061 58.6695H132.403C132.421 59.399 132.951 59.8894 133.732 59.8894C134.604 59.8894 135.098 59.3622 135.098 58.3753V52.1228H136.464V58.3814C136.464 60.1591 135.439 61.1828 133.744 61.1828C132.153 61.1828 131.061 60.1897 131.061 58.6695ZM138.25 58.5898H139.604C139.72 59.4296 140.537 59.9629 141.713 59.9629C142.811 59.9629 143.616 59.3928 143.616 58.6082C143.616 57.9339 143.104 57.5294 141.939 57.2535L140.805 56.9777C139.214 56.6037 138.488 55.8314 138.488 54.5318C138.488 52.9564 139.768 51.9082 141.689 51.9082C143.476 51.9082 144.78 52.9564 144.86 54.446H143.531C143.402 53.6307 142.695 53.1219 141.671 53.1219C140.592 53.1219 139.872 53.643 139.872 54.4399C139.872 55.0713 140.335 55.4329 141.482 55.7026L142.451 55.9417C144.256 56.3647 145 57.1003 145 58.4305C145 60.1223 143.695 61.1828 141.61 61.1828C139.659 61.1828 138.348 60.1713 138.25 58.5898Z" fill="white"/>
</svg>
