<svg width="275" height="68" viewBox="0 0 275 68" fill="none" xmlns="http://www.w3.org/2000/svg">
<path fill-rule="evenodd" clip-rule="evenodd" d="M52.3639 9.58881C46.1224 0.655621 33.7954 -1.99193 24.8821 3.6868L9.22969 13.6632C7.11495 14.9934 5.30103 16.7503 3.90392 18.8215C2.5068 20.8926 1.55723 23.2325 1.1159 25.6916C0.369313 29.8337 1.02572 34.1065 2.98119 37.8335C1.64151 39.866 0.727853 42.1491 0.295426 44.5447C-0.150524 47.0532 -0.0910845 49.6254 0.47026 52.1106C1.0316 54.5959 2.08355 56.944 3.5644 59.0172C9.80752 67.9515 22.1345 70.598 31.0462 64.9192L46.6991 54.9434C48.814 53.6132 50.6279 51.8562 52.0249 49.785C53.422 47.7137 54.3714 45.3736 54.8124 42.9145C55.5587 38.7725 54.9027 34.4999 52.9482 30.7726C54.2875 28.74 55.2008 26.4569 55.6329 24.0614C56.0792 21.5529 56.02 18.9806 55.4587 16.4954C54.8974 14.0101 53.8449 11.662 52.3639 9.58881ZM23.353 59.8582C20.8898 60.4985 18.2894 60.3675 15.903 59.4828C13.5166 58.5981 11.4592 57.0024 10.0086 54.9112C9.11787 53.6645 8.48509 52.2524 8.14741 50.7578C7.80973 49.2633 7.77395 47.7163 8.04218 46.2077C8.13256 45.7127 8.25738 45.2242 8.4161 44.7459L8.71093 43.8475L9.51257 44.436C11.3646 45.797 13.4354 46.8317 15.6357 47.4957L16.2178 47.6722L16.164 48.2527C16.093 49.0788 16.3168 49.9033 16.7957 50.5802C17.2323 51.2101 17.8516 51.6908 18.5702 51.9575C19.2887 52.2242 20.0717 52.264 20.8136 52.0715C21.1537 51.9805 21.478 51.8379 21.775 51.6487L37.4285 41.6739C37.8115 41.4326 38.1401 41.1142 38.3932 40.739C38.6464 40.3637 38.8186 39.9399 38.8989 39.4944C38.9793 39.0397 38.9683 38.5735 38.8666 38.1231C38.7649 37.6727 38.5745 37.2471 38.3065 36.871C37.8697 36.2409 37.2499 35.7599 36.5311 35.4931C35.8122 35.2263 35.0287 35.1866 34.2865 35.3791C33.9469 35.47 33.6232 35.6122 33.3267 35.8009L27.3531 39.609C26.3709 40.2334 25.299 40.7041 24.1745 41.0046C21.7113 41.6451 19.1108 41.5142 16.7243 40.6296C14.3378 39.745 12.2803 38.1493 10.8296 36.0581C9.93888 34.8114 9.3061 33.3993 8.96842 31.9047C8.63074 30.4102 8.59496 28.8632 8.86319 27.3547C9.12843 25.876 9.69935 24.469 10.5394 23.2236C11.3795 21.9782 12.4702 20.9219 13.7419 20.1221L29.3943 10.1457C30.377 9.52027 31.4497 9.04908 32.5751 8.74851C35.0383 8.10803 37.6388 8.23892 40.0253 9.12351C42.4118 10.0081 44.4693 11.6038 45.92 13.695C46.8107 14.9417 47.4435 16.3538 47.7812 17.8483C48.1189 19.3429 48.1547 20.8899 47.8864 22.3985C47.795 22.8934 47.6701 23.3825 47.5125 23.8602L47.2177 24.7593L46.416 24.1712C44.5641 22.8096 42.493 21.7744 40.2924 21.1104L39.7108 20.934L39.7646 20.3529C39.8349 19.5271 39.6112 18.7029 39.1329 18.026C38.6963 17.3961 38.077 16.9154 37.3584 16.6487C36.6399 16.382 35.8569 16.3422 35.1151 16.5346C34.7749 16.6255 34.4507 16.7679 34.1536 16.957L18.5001 26.9328C18.117 27.1738 17.7885 27.4921 17.5354 27.8673C17.2823 28.2425 17.1102 28.6663 17.0302 29.1118C16.9493 29.5665 16.96 30.0328 17.0615 30.4833C17.163 30.9339 17.3534 31.3596 17.6215 31.7357C18.0584 32.3658 18.678 32.8466 19.3968 33.1134C20.1156 33.3802 20.8989 33.4201 21.641 33.2276C21.9811 33.1366 22.3053 32.9942 22.6025 32.8053L28.5749 28.9988C29.5569 28.3735 30.6289 27.9025 31.7535 27.6021C34.2168 26.9616 36.8173 27.0926 39.2037 27.9771C41.5902 28.8617 43.6477 30.4574 45.0984 32.5486C45.9892 33.7954 46.622 35.2074 46.9596 36.702C47.2973 38.1966 47.3331 39.7435 47.0649 41.2521C46.7994 42.7308 46.2283 44.138 45.3882 45.3835C44.548 46.629 43.4573 47.6856 42.1856 48.4857L26.5337 58.4605C25.5511 59.0861 24.4784 59.5575 23.353 59.8582ZM81.4327 50.4842C83.8795 52.073 86.75 52.884 89.6665 52.8105C93.2459 52.8111 96.1775 51.8647 98.4619 49.9715C100.746 48.0803 101.889 45.464 101.889 42.1218C101.895 41.1455 101.766 40.173 101.504 39.2322C101.29 38.4313 100.981 37.6588 100.584 36.9311C100.167 36.2298 99.6406 35.5998 99.0241 35.0652C98.4571 34.5439 97.8594 34.057 97.2342 33.6072C96.5364 33.1461 95.8004 32.7443 95.0353 32.4053C94.0809 31.9614 93.3562 31.6462 92.8617 31.4595C92.3673 31.2722 91.6087 30.9909 90.5865 30.6153C88.9159 30.0359 87.6715 29.5759 86.8526 29.2348C85.9773 28.8559 85.1797 28.3183 84.4999 27.6492C84.1503 27.3422 83.8694 26.9648 83.6756 26.5418C83.4817 26.1187 83.3793 25.6596 83.3749 25.1943C83.3447 24.5874 83.4615 23.9822 83.7154 23.4301C83.9692 22.878 84.3526 22.3954 84.8329 22.0233C86.0088 21.2123 87.4215 20.8164 88.8476 20.8982C90.3019 20.8449 91.7431 21.1898 93.0156 21.8957C94.0676 22.4991 94.9004 23.4214 95.3936 24.5293L100.303 22.8932C99.6787 20.7776 98.3301 18.9491 96.4933 17.7277C94.6006 16.4322 92.1887 15.7844 89.257 15.7844C85.7454 15.7844 82.9666 16.6878 80.9205 18.4949C79.5142 19.7102 78.5255 21.3369 78.0942 23.1448C77.6629 24.9528 77.8109 26.8506 78.5172 28.5698C78.8853 29.4714 79.3945 30.3086 80.0258 31.05C80.7554 31.8098 81.6014 32.4485 82.5319 32.9422C83.3963 33.4521 84.2931 33.905 85.2165 34.298C85.8982 34.5703 86.921 34.9453 88.2854 35.4225C89.3759 35.798 90.2029 36.0966 90.7656 36.3172C91.3273 36.5394 92.0348 36.8638 92.8876 37.2888C93.5788 37.607 94.217 38.0296 94.7797 38.5419C95.2247 39.002 95.5957 39.5284 95.8794 40.1021C96.2057 40.7434 96.3726 41.454 96.3658 42.1735C96.4107 42.9458 96.2745 43.7179 95.9682 44.4283C95.6618 45.1387 95.1937 45.7677 94.6011 46.2651C93.2389 47.2787 91.5657 47.785 89.8709 47.6967C88.1072 47.7298 86.3759 47.2211 84.9104 46.2393C83.4666 45.2541 82.3316 43.8798 81.6371 42.2757L76.625 44.1168C77.449 46.7283 79.1466 48.9766 81.4327 50.4842ZM110.173 16.3978L122.447 52.1972H127.765L139.989 16.3978H134.312L126.283 41.3552C125.833 42.6971 125.457 44.0629 125.158 45.4462C124.858 44.063 124.482 42.6972 124.033 41.3552L115.901 16.3978H110.173ZM150.83 16.3978V52.1972H174.15V47.1845H156.149V36.2413H167.041V31.2292H156.149V21.4099H173.026V16.3978H150.83ZM187.702 16.3978V52.1972L210.512 52.1978V47.0834H193.022V16.3978H187.702ZM230.558 52.1972V21.5121L240.684 21.5116V16.3978H215.114V21.5116H225.239V52.1972H230.558ZM251.679 16.3978V52.1972H275V47.1845H256.999V36.2413H267.891V31.2292H256.999V21.4099H273.875V16.3978H251.679Z" fill="white"/>
</svg>
