<svg width="200" height="55" viewBox="0 0 200 55" fill="none" xmlns="http://www.w3.org/2000/svg">
<path fill-rule="evenodd" clip-rule="evenodd" d="M58.8281 40.8002V16.1908H61.9922L77.0312 35.9955V16.1908H80.0391V40.8002H76.875L61.8359 20.8002V40.8002H58.8281ZM104.531 39.8236C102.539 40.5658 100.391 40.9564 98.125 40.9564C89.2187 40.9564 84.7656 36.6986 84.7656 28.1439C84.7656 20.058 89.0625 15.9955 97.6562 15.9955C100.117 15.9955 102.422 16.347 104.531 17.0111V19.7455C102.422 18.9252 100.234 18.5345 98.0078 18.5345C91.2891 18.5345 87.9297 21.7377 87.9297 28.0658C87.9297 34.9017 91.25 38.3002 97.8516 38.3002C98.9062 38.3002 100.078 38.1439 101.367 37.8705V29.6283H104.531V39.8236ZM109.609 31.308V16.1908H112.773V31.308C112.773 36.0345 115.117 38.4174 119.844 38.4174C124.531 38.4174 126.914 36.0345 126.914 31.308V16.1908H130.078V31.308C130.078 37.7533 126.68 40.9955 119.844 40.9955C113.008 40.9955 109.609 37.7533 109.609 31.308ZM138.906 16.1908V38.222H151.797V40.8002H135.742V16.1908H138.906ZM156.367 40.8002H153.047L165.273 12.9486L177.5 40.8002H173.984L170.82 33.0658H162.695L163.555 30.4877H169.766L165.156 19.3549L156.367 40.8002ZM180.898 40.8002V16.1908H191.406C196.094 16.1908 198.437 18.1439 198.437 22.0892C198.437 25.2924 196.133 27.6752 191.562 29.1986L200 40.8002H195.82L188.008 29.7455V27.6752C192.695 26.933 195.078 25.1361 195.078 22.2455C195.078 19.9799 193.789 18.847 191.172 18.847H184.141V40.8002H180.898Z" fill="white"/>
<path fill-rule="evenodd" clip-rule="evenodd" d="M0 9.62829L25.1953 0.643921L51.0547 9.47204L46.875 42.7924L25.1953 54.7845L3.86719 42.9486L0 9.62829ZM25.1953 33.8861H32.5781L36.0156 41.8549L41.6016 41.972L25.2344 6.97205L25.1953 7.05891L9.53125 41.8939L15.3906 41.7767L18.5547 33.8861H25.1953ZM25.2734 18.183L30.5859 29.2767H25.1953H20.625L25.1953 18.3694L25.2734 18.183Z" fill="white"/>
</svg>
