<svg width="224" height="59" viewBox="0 0 224 59" fill="none" xmlns="http://www.w3.org/2000/svg">
<path fill-rule="evenodd" clip-rule="evenodd" d="M52.6915 32.2612L56.9405 36.5487C57.277 36.8894 57.4662 37.3503 57.4668 37.8308V40.2431C57.4668 46.705 56.7996 49.0494 55.5471 51.4128C54.3239 53.7467 52.4322 55.6564 50.1177 56.8939C47.7753 58.1554 45.4527 58.8286 39.049 58.8286H27.8039C27.733 58.8282 27.6637 58.8066 27.6048 58.7667C27.546 58.7267 27.5001 58.6701 27.4731 58.604C27.4461 58.5379 27.4391 58.4653 27.453 58.3952C27.4668 58.3251 27.501 58.2606 27.5511 58.21V58.2118L31.7987 53.9247C31.9653 53.7563 32.1632 53.6226 32.3811 53.5313C32.5991 53.44 32.8328 53.393 33.0688 53.3929H38.2663C43.0692 53.3929 44.8095 52.8888 46.5661 51.9398C48.3022 51.0121 49.7214 49.5801 50.6392 47.8299C51.5623 46.0873 52.062 44.3584 52.0786 39.6919V32.5176C52.0791 32.4463 52.1004 32.3768 52.14 32.3176C52.1795 32.2585 52.2355 32.2124 52.3009 32.1851C52.3663 32.1579 52.4382 32.1506 52.5077 32.1643C52.5772 32.178 52.6411 32.2111 52.6915 32.2612ZM0.612499 28.635L4.86324 32.9221C5.19976 33.2628 5.38893 33.7237 5.38955 34.2042V39.4505C5.38955 44.298 5.88874 46.056 6.82936 47.8281C7.74674 49.5781 9.16522 51.01 10.9007 51.938C12.6573 52.8871 14.3994 53.3911 19.2018 53.3911H26.0714C26.1427 53.391 26.2124 53.4121 26.2717 53.4518C26.331 53.4915 26.3773 53.5481 26.4047 53.6143C26.4321 53.6805 26.4394 53.7534 26.4256 53.8238C26.4119 53.8942 26.3777 53.9589 26.3274 54.0097L22.0766 58.2968C21.9103 58.4652 21.7126 58.5988 21.4949 58.6901C21.2772 58.7813 21.0437 58.8284 20.8079 58.8286H18.4187C12.0146 58.8286 9.69323 58.1554 7.3513 56.8922C5.03612 55.655 3.14382 53.7453 1.92018 51.4111C0.684686 49.0803 0.0188125 46.7684 0 40.5084V28.8906C0.000501582 28.8193 0.0218277 28.7498 0.0613159 28.6907C0.100804 28.6316 0.156705 28.5855 0.22204 28.5582C0.287375 28.5309 0.359249 28.5236 0.428689 28.5372C0.498129 28.5508 0.56206 28.5851 0.612499 28.635ZM84.6604 16.9811C86.3352 16.9811 87.8424 17.2939 89.1811 17.9196C90.5199 18.543 91.6609 19.4018 92.6046 20.4892C93.5669 21.6134 94.2958 22.9204 94.7483 24.333C95.2361 25.8072 95.4794 27.3943 95.4794 29.0906C95.4926 30.7095 95.2302 32.3186 94.7037 33.8482C94.2248 35.2543 93.4896 36.558 92.5359 37.6925C91.611 38.7788 90.4675 39.6548 89.1811 40.2625C87.8384 40.895 86.3716 41.2155 84.8893 41.2001C83.8541 41.2001 82.9424 41.0873 82.1505 40.8631C81.4181 40.663 80.713 40.3725 80.0514 39.9982C79.4932 39.6829 78.9725 39.3045 78.4996 38.8702C78.1117 38.5133 77.7595 38.1188 77.4483 37.6925C77.4121 37.6925 77.3773 37.7069 77.3516 37.7325C77.3259 37.7582 77.3112 37.793 77.3109 37.8295V49.468C77.3109 49.7452 77.2567 50.0196 77.1514 50.2757C77.0461 50.5317 76.8917 50.7644 76.6971 50.9604C76.5025 51.1563 76.2715 51.3118 76.0172 51.4179C75.763 51.5239 75.4905 51.5785 75.2153 51.5785H73.9308C73.6556 51.5785 73.3831 51.5239 73.1288 51.4179C72.8746 51.3118 72.6436 51.1563 72.449 50.9604C72.2544 50.7644 72.1 50.5317 71.9947 50.2757C71.8894 50.0196 71.8352 49.7452 71.8352 49.468V19.6692C71.8352 19.1095 72.056 18.5727 72.449 18.1769C72.842 17.7811 73.375 17.5587 73.9308 17.5587H75.319C75.5446 17.5586 75.7681 17.6033 75.9766 17.6902C76.1852 17.7771 76.3746 17.9045 76.5342 18.0652C76.6938 18.2259 76.8204 18.4167 76.9068 18.6267C76.9931 18.8366 77.0375 19.0617 77.0375 19.289V20.9258C77.0375 20.9774 77.079 21.0174 77.1285 21.0174C77.9203 19.6075 78.9843 18.5849 80.3248 17.942C81.6801 17.2981 83.162 16.9694 84.6604 16.9811ZM43.7136 23.198L47.9626 27.4895C48.2991 27.8302 48.4879 28.2914 48.4876 28.772V42.5215C48.4876 46.5252 45.272 49.7716 41.3043 49.7716H36.7565C36.6862 49.7713 36.6175 49.7503 36.5589 49.7111C36.5003 49.672 36.4544 49.6164 36.4268 49.5513C36.3993 49.4861 36.3912 49.4143 36.4037 49.3446C36.4162 49.275 36.4486 49.2105 36.4971 49.1592V49.1574L42.0323 43.3106C42.4041 42.9375 42.6899 42.4865 42.8692 41.9897C43.0219 41.5804 43.0998 41.1464 43.0993 40.7088V23.4535C43.0995 23.3819 43.1207 23.312 43.1603 23.2525C43.1999 23.193 43.256 23.1467 43.3217 23.1193C43.3874 23.0919 43.4597 23.0848 43.5294 23.0987C43.5992 23.1126 43.6632 23.1474 43.7136 23.198ZM9.58735 37.6652H9.5856L15.3803 43.2524C15.7498 43.6265 16.1963 43.9142 16.6884 44.0953C17.0822 44.2464 17.5109 44.3288 17.9589 44.3288H35.0542C35.1252 44.3293 35.1944 44.3508 35.2533 44.3908C35.3121 44.4307 35.358 44.4873 35.385 44.5534C35.412 44.6195 35.419 44.6922 35.4052 44.7623C35.3913 44.8324 35.3572 44.8968 35.3071 44.9474L31.0546 49.2363C30.718 49.5751 30.2617 49.7658 29.7858 49.7663H16.1621C14.255 49.764 12.427 48.9988 11.08 47.6392C9.73309 46.2796 8.97758 44.4368 8.97967 42.5162V37.926C8.98005 37.8552 9.00099 37.7861 9.0399 37.7272C9.07881 37.6683 9.13399 37.6221 9.19864 37.5944C9.26329 37.5666 9.33458 37.5586 9.40373 37.5711C9.47288 37.5837 9.53642 37.6164 9.58735 37.6652ZM217 16.9815C218.401 16.9815 219.807 17.2622 221.223 17.8231C221.762 18.0368 222.399 18.4188 223.132 18.9682C223.37 19.1468 223.568 19.3744 223.712 19.6359C223.857 19.8975 223.944 20.1869 223.969 20.4851C223.994 20.7832 223.955 21.0833 223.856 21.3654C223.757 21.6474 223.6 21.9051 223.394 22.1212L222.546 23.0121C222.187 23.3904 221.7 23.6206 221.182 23.6581C220.663 23.6956 220.149 23.5375 219.74 23.2147C219.551 23.0627 219.353 22.9229 219.146 22.7962C218.501 22.3951 217.758 22.1791 217 22.1714C215.996 22.1714 215.097 22.3653 214.307 22.7486C213.535 23.1185 212.844 23.6412 212.275 24.2854C211.71 24.9308 211.275 25.6818 210.997 26.4959C210.708 27.3296 210.562 28.2067 210.564 29.0897C210.564 29.9885 210.708 30.8521 210.997 31.6849C211.274 32.4998 211.71 33.2513 212.277 33.8958C212.845 34.5405 213.535 35.0637 214.307 35.4344C215.097 35.8177 215.996 36.0111 217 36.0111C217.852 36.0111 218.644 35.8261 219.373 35.4582C219.522 35.3828 219.682 35.2811 219.853 35.1542C220.274 34.8421 220.796 34.6997 221.315 34.7548C221.835 34.8099 222.315 35.0586 222.663 35.452L223.495 36.3927C223.692 36.6156 223.837 36.8798 223.92 37.1663C224.003 37.4527 224.022 37.7542 223.975 38.0488C223.928 38.3434 223.816 38.6238 223.648 38.8696C223.48 39.1154 223.26 39.3204 223.003 39.4699C221.685 40.2435 220.239 40.7728 218.735 41.0327C218.065 41.1442 217.487 41.2006 217 41.2006C215.407 41.2094 213.828 40.9164 212.345 40.3352C210.928 39.7878 209.638 38.9537 208.554 37.8846C207.467 36.7932 206.606 35.4946 206.022 34.0646C205.398 32.5744 205.086 30.9165 205.086 29.091C205.086 27.2661 205.398 25.6081 206.022 24.1175C206.606 22.6875 207.467 21.389 208.554 20.2975C209.638 19.2286 210.928 18.3947 212.344 17.8473C213.828 17.2661 215.407 16.9726 217 16.9815ZM139.806 16.9815C141.266 16.9815 142.713 17.2459 144.143 17.7746C144.661 17.9663 145.239 18.3205 145.877 18.8378C146.11 19.0271 146.301 19.2647 146.435 19.5344C146.57 19.8041 146.645 20.0997 146.657 20.4013C146.668 20.7029 146.615 21.0034 146.501 21.2826C146.387 21.5618 146.215 21.8132 145.997 22.0198L145.315 22.6657C144.958 23.0039 144.495 23.2054 144.006 23.2352C143.517 23.265 143.033 23.1212 142.638 22.8288C141.526 22.0066 140.535 21.5942 139.67 21.5942C138.939 21.5942 138.224 21.7876 137.523 22.1714C136.824 22.556 136.473 23.1795 136.473 24.0448C136.473 24.7507 136.761 25.2626 137.341 25.5834C137.92 25.9024 138.649 26.1765 139.532 26.4003C140.481 26.6404 141.432 26.8725 142.385 27.0964C143.383 27.3289 144.343 27.7008 145.239 28.2015C146.122 28.6976 146.851 29.3779 147.431 30.2445C148.008 31.1094 148.297 32.2933 148.297 33.8002C148.297 35.1775 148.016 36.3376 147.453 37.2832C146.911 38.207 146.16 38.9892 145.261 39.5664C144.329 40.1569 143.302 40.5794 142.226 40.815C141.118 41.0693 139.984 41.1984 138.848 41.2001C137.144 41.2001 135.576 40.9424 134.145 40.4313C133.585 40.2299 132.913 39.8276 132.129 39.2214C131.89 39.0373 131.694 38.8039 131.553 38.5368C131.412 38.2698 131.33 37.9753 131.312 37.6734C131.294 37.3716 131.341 37.0693 131.449 36.7872C131.557 36.505 131.724 36.2495 131.938 36.038L132.506 35.4771C132.884 35.1038 133.388 34.8884 133.917 34.8741C134.447 34.8598 134.961 35.0477 135.359 35.4C135.691 35.6948 135.979 35.9221 136.222 36.0816C137.029 36.6117 138.011 36.8756 139.166 36.8756C139.563 36.8756 139.974 36.8271 140.4 36.7306C140.819 36.6373 141.22 36.4751 141.587 36.2504C141.94 36.0371 142.243 35.7505 142.478 35.4097C142.705 35.0731 142.82 34.6814 142.82 34.2333C142.82 33.4314 142.53 32.8384 141.951 32.455C141.374 32.07 140.642 31.7571 139.76 31.517C138.816 31.2627 137.865 31.0388 136.907 30.8455C135.914 30.6461 134.953 30.3059 134.055 29.8352C133.177 29.3759 132.425 28.7078 131.863 27.8891C131.285 27.0563 130.996 25.9024 130.996 24.4299C130.996 23.1491 131.247 22.0357 131.748 21.0901C132.227 20.1725 132.906 19.376 133.735 18.7602C134.586 18.1367 135.547 17.6798 136.566 17.4133C137.623 17.1266 138.712 16.9814 139.806 16.9815ZM197.1 17.5587C197.656 17.5587 198.189 17.7811 198.582 18.1769C198.975 18.5727 199.196 19.1095 199.196 19.6692V38.5124C199.196 38.7896 199.141 39.064 199.036 39.3201C198.931 39.5761 198.776 39.8088 198.582 40.0048C198.387 40.2008 198.156 40.3562 197.902 40.4623C197.648 40.5683 197.375 40.6229 197.1 40.6229H195.815C195.54 40.6229 195.268 40.5683 195.013 40.4623C194.759 40.3562 194.528 40.2008 194.334 40.0048C194.139 39.8088 193.985 39.5761 193.879 39.3201C193.774 39.064 193.72 38.7896 193.72 38.5124V19.6692C193.72 19.1095 193.941 18.5727 194.334 18.1769C194.727 17.7811 195.26 17.5587 195.815 17.5587H197.1ZM179.066 16.9815C180.527 16.9815 181.758 17.238 182.763 17.7504C183.74 18.2386 184.579 18.9652 185.206 19.864C185.829 20.7615 186.277 21.8101 186.551 23.0121C186.826 24.214 186.963 25.5028 186.963 26.8788V38.5107C186.963 39.0704 186.742 39.6072 186.349 40.003C185.956 40.3988 185.423 40.6212 184.867 40.6212H183.581C183.306 40.6212 183.033 40.5667 182.779 40.4606C182.524 40.3546 182.293 40.1992 182.099 40.0032C181.904 39.8072 181.75 39.5745 181.644 39.3184C181.539 39.0623 181.485 38.7879 181.485 38.5107V27.5525C181.485 26.8484 181.424 26.1672 181.302 25.5112C181.197 24.8995 180.98 24.3128 180.662 23.7809C180.361 23.2873 179.936 22.8817 179.431 22.6045C178.912 22.315 178.244 22.1714 177.421 22.1714C176.57 22.1714 175.847 22.3388 175.253 22.6759C174.669 23.0037 174.169 23.4643 173.793 24.021C173.402 24.6045 173.123 25.2563 172.97 25.9429C172.803 26.6595 172.718 27.3932 172.719 28.1292V38.5129C172.719 39.0726 172.498 39.6094 172.105 40.0052C171.712 40.401 171.179 40.6234 170.623 40.6234H169.337C169.061 40.6234 168.789 40.5688 168.535 40.4627C168.28 40.3567 168.049 40.2012 167.855 40.0052C167.66 39.8092 167.506 39.5766 167.401 39.3205C167.295 39.0645 167.241 38.79 167.241 38.5129V26.881C167.241 25.4389 166.953 24.2933 166.374 23.4443C165.795 22.597 164.838 22.1714 163.498 22.1714C162.586 22.1714 161.816 22.3326 161.192 22.6516C160.584 22.9604 160.053 23.4044 159.64 23.9501C159.223 24.5088 158.92 25.1459 158.75 25.824C158.565 26.5461 158.474 27.289 158.477 28.0345V38.5129C158.477 38.7902 158.423 39.0648 158.318 39.3209C158.212 39.5771 158.058 39.8098 157.863 40.0058C157.668 40.2018 157.437 40.3573 157.183 40.4632C156.928 40.5692 156.655 40.6236 156.38 40.6234H155.094C154.538 40.6234 154.005 40.401 153.612 40.0052C153.219 39.6094 152.998 39.0726 152.998 38.5129V19.6692C152.998 19.1095 153.219 18.5729 153.612 18.1771C154.005 17.7814 154.538 17.559 155.094 17.5587H156.107C156.662 17.559 157.195 17.7814 157.588 18.1771C157.981 18.5729 158.202 19.1095 158.202 19.6692V21.1628C158.802 20.0294 159.635 19.0378 160.645 18.2544C161.725 17.4054 163.178 16.9815 165.005 16.9815C168.444 16.9815 170.725 18.4073 171.851 21.2576C172.643 19.7851 173.632 18.7038 174.819 18.0147C176.006 17.3265 177.42 16.9815 179.065 16.9815H179.066ZM113.33 16.9815C113.664 16.9815 113.992 17.0137 114.31 17.0785C114.587 17.1335 114.836 17.2836 115.015 17.503C115.195 17.7224 115.293 17.9976 115.293 18.2817V21.4462C115.293 21.6149 115.256 21.7815 115.185 21.9344C115.114 22.0872 115.011 22.2225 114.883 22.3307C114.754 22.4389 114.603 22.5173 114.442 22.5605C114.28 22.6036 114.11 22.6103 113.945 22.5803C113.517 22.501 113.081 22.4609 112.645 22.4595C111.365 22.4595 110.339 22.7076 109.564 23.2042C108.788 23.702 108.194 24.2687 107.783 24.9115C107.396 25.4962 107.117 26.147 106.961 26.8321C106.823 27.4732 106.756 27.9534 106.756 28.2742V38.5124C106.756 38.7896 106.702 39.064 106.597 39.3201C106.492 39.5761 106.337 39.8088 106.143 40.0048C105.948 40.2008 105.717 40.3562 105.463 40.4623C105.208 40.5683 104.936 40.6229 104.661 40.6229H103.374C103.099 40.6229 102.827 40.5683 102.573 40.4623C102.318 40.3562 102.087 40.2008 101.893 40.0048C101.698 39.8088 101.544 39.5761 101.438 39.3201C101.333 39.064 101.279 38.7896 101.279 38.5124V19.6692C101.279 19.1095 101.5 18.5727 101.893 18.1769C102.286 17.7811 102.819 17.5587 103.374 17.5587H104.942C105.423 17.5585 105.884 17.7506 106.224 18.0929C106.565 18.4351 106.756 18.8994 106.756 19.3837V21.1192C106.756 21.169 106.796 21.2109 106.847 21.2109C107.455 19.864 108.323 18.8228 109.449 18.087C110.575 17.3508 111.869 16.9815 113.33 16.9815ZM123.194 17.5587C123.75 17.559 124.283 17.7814 124.676 18.1771C125.069 18.5729 125.289 19.1095 125.29 19.6692V38.5124C125.29 38.7896 125.235 39.064 125.13 39.3201C125.025 39.5761 124.87 39.8088 124.676 40.0048C124.481 40.2008 124.25 40.3562 123.996 40.4623C123.742 40.5683 123.469 40.6229 123.194 40.6229H121.908C121.633 40.6229 121.36 40.5683 121.106 40.4623C120.852 40.3562 120.621 40.2008 120.426 40.0048C120.231 39.8088 120.077 39.5761 119.972 39.3201C119.866 39.064 119.812 38.7896 119.812 38.5124V19.6692C119.812 19.1095 120.033 18.5727 120.426 18.1769C120.819 17.7811 121.352 17.5587 121.908 17.5587H123.194ZM20.7108 9.89092C20.781 9.89139 20.8495 9.9125 20.9079 9.95166C20.9663 9.99083 21.0121 10.0463 21.0396 10.1114C21.0671 10.1764 21.0752 10.2481 21.0628 10.3176C21.0504 10.3872 21.018 10.4516 20.9698 10.5029L15.4328 16.3519C15.0616 16.7252 14.7766 17.1761 14.598 17.6728C14.4445 18.0826 14.3662 18.5162 14.3662 18.9537V36.2085C14.3655 36.2797 14.344 36.3492 14.3044 36.4082C14.2648 36.4672 14.2088 36.5131 14.1434 36.5403C14.0781 36.5675 14.0062 36.5746 13.9368 36.5609C13.8674 36.5472 13.8036 36.5132 13.7532 36.4632L9.50423 32.1713C9.16783 31.8311 8.97904 31.3705 8.97923 30.8905V17.141C8.97923 13.1377 12.1948 9.89136 16.1625 9.89136L20.7108 9.89092ZM83.5654 22.1705C82.5609 22.1705 81.6618 22.3644 80.8717 22.7477C80.099 23.1177 79.4081 23.6403 78.84 24.2845C78.2741 24.9299 77.8398 25.6809 77.5616 26.495C77.273 27.3288 77.127 28.2059 77.1298 29.0888C77.1298 29.9877 77.2737 30.8512 77.5616 31.684C77.8512 32.5172 78.2769 33.2552 78.8413 33.8949C79.4092 34.5398 80.1002 35.063 80.873 35.4335C81.6636 35.8168 82.5609 36.0103 83.5654 36.0103C84.5703 36.0103 85.4676 35.8164 86.2578 35.4331C87.0305 35.0627 87.7215 34.5396 88.2895 33.8949C88.853 33.2552 89.2783 32.5172 89.5696 31.6844C89.8575 30.8517 90.0014 29.9881 90.0014 29.0902C90.0014 28.1931 89.8571 27.3278 89.5696 26.4963C89.2911 25.6817 88.8561 24.9301 88.2895 24.2845C87.7214 23.6401 87.0305 23.1174 86.2578 22.7473C85.4676 22.3622 84.5703 22.1705 83.5654 22.1705ZM50.1177 2.76506C52.4322 4.00257 54.3239 5.91224 55.5471 8.24615C56.7826 10.5769 57.4484 12.8888 57.4664 19.1493L57.4668 30.7662C57.467 30.8379 57.4459 30.9081 57.4064 30.9678C57.3669 31.0275 57.3107 31.074 57.2449 31.1015C57.1791 31.1289 57.1067 31.1361 57.0369 31.1221C56.967 31.108 56.9029 31.0734 56.8526 31.0226V31.0209L52.6053 26.7351C52.2681 26.3949 52.0788 25.9337 52.079 25.453V20.2072C52.079 15.3592 51.5781 13.6017 50.6392 11.8291C49.7214 10.0789 48.3022 8.64693 46.5661 7.71919C44.8113 6.77057 43.0692 6.26609 38.2667 6.26609H31.3949C31.324 6.26566 31.2547 6.24412 31.1958 6.20416C31.137 6.16421 31.0911 6.10762 31.0641 6.04152C31.0371 5.97541 31.0301 5.90274 31.0439 5.83263C31.0578 5.76253 31.0919 5.69811 31.1421 5.64748L35.3897 1.36042C35.5563 1.19191 35.7543 1.05819 35.9723 0.966927C36.1904 0.875666 36.4241 0.828662 36.6602 0.828613L39.049 0.828613C45.4527 0.828613 47.7753 1.50185 50.1177 2.76506ZM29.6624 0.828613C29.7334 0.829037 29.8027 0.850581 29.8616 0.890537C29.9204 0.930492 29.9662 0.987077 29.9933 1.05318C30.0203 1.11928 30.0273 1.19196 30.0134 1.26206C29.9996 1.33217 29.9654 1.39659 29.9153 1.44722L25.6681 5.73428C25.5014 5.90267 25.3034 6.03632 25.0854 6.12757C24.8674 6.21882 24.6337 6.26589 24.3976 6.26609H19.2001C14.3977 6.26609 12.6551 6.77057 10.899 7.71919C9.16282 8.64693 7.74371 10.0789 6.82586 11.8291C5.88655 13.6017 5.38605 15.3592 5.38605 20.2072V27.1414C5.38555 27.2126 5.36422 27.2821 5.32474 27.3412C5.28525 27.4003 5.22935 27.4464 5.16401 27.4737C5.09868 27.501 5.0268 27.5084 4.95736 27.4948C4.88792 27.4812 4.82399 27.4473 4.77355 27.3974L0.527624 23.1103C0.189894 22.7703 0.000104774 22.3091 0 21.8282L0 19.4159C0 12.954 0.667186 10.61 1.91975 8.24659C3.14294 5.91268 5.03459 4.00301 7.34911 2.7655C9.65954 1.51904 11.9503 0.847119 18.1527 0.828613H29.6624ZM41.3043 9.89136C45.2715 9.89136 48.4871 13.1377 48.4871 17.141V21.7312C48.4868 21.802 48.4658 21.8711 48.4269 21.93C48.388 21.989 48.3328 22.0351 48.2682 22.0629C48.2035 22.0906 48.1322 22.0987 48.0631 22.0861C47.9939 22.0735 47.93 22.0408 47.879 21.9921L42.0878 16.4052C41.7176 16.0311 41.2703 15.7434 40.7775 15.5624C40.3718 15.4076 39.9414 15.3284 39.5075 15.3288H22.4126C22.3415 15.3288 22.2719 15.3074 22.2127 15.2676C22.1536 15.2277 22.1075 15.171 22.0803 15.1048C22.0531 15.0385 22.046 14.9657 22.0599 14.8954C22.0738 14.825 22.1081 14.7605 22.1585 14.7098L26.4123 10.4214C26.5788 10.2535 26.7766 10.1202 26.9943 10.0293C27.212 9.93835 27.4453 9.89148 27.681 9.89136H41.3043ZM122.504 6.26564C123.509 6.26564 124.353 6.59433 125.038 7.24995C125.723 7.90733 126.065 8.73214 126.065 9.72481C126.065 10.7188 125.723 11.5436 125.038 12.1992C124.353 12.8566 123.509 13.1853 122.504 13.1853C121.501 13.1853 120.671 12.8408 120.017 12.1525C119.701 11.8335 119.453 11.4546 119.284 11.0378C119.116 10.621 119.031 10.1747 119.036 9.72481C119.036 8.7969 119.362 7.98796 120.017 7.29842C120.672 6.61064 121.501 6.26564 122.504 6.26564ZM196.412 6.26564C197.416 6.26564 198.261 6.59433 198.946 7.24995C199.63 7.90733 199.973 8.73214 199.973 9.72481C199.973 10.7188 199.63 11.5436 198.946 12.1992C198.261 12.8566 197.416 13.1853 196.412 13.1853C195.407 13.1853 194.579 12.8408 193.924 12.1525C193.609 11.8336 193.36 11.4547 193.191 11.038C193.022 10.6212 192.938 10.1748 192.942 9.72481C192.942 8.7969 193.27 7.98796 193.924 7.29842C194.578 6.61064 195.407 6.26564 196.412 6.26564Z" fill="white"/>
</svg>
