<svg width="179" height="60" viewBox="0 0 179 60" fill="none" xmlns="http://www.w3.org/2000/svg">
<path d="M33.0026 36.0554C36.2999 36.0554 38.9729 33.3824 38.9729 30.0851C38.9729 26.7878 36.2999 24.1147 33.0026 24.1147C29.7052 24.1147 27.0322 26.7878 27.0322 30.0851C27.0322 33.3824 29.7052 36.0554 33.0026 36.0554Z" fill="white"/>
<path fill-rule="evenodd" clip-rule="evenodd" d="M33.0027 17.9458C41.0187 17.9458 48.4653 19.096 54.0801 21.029C60.845 23.358 65.0044 26.8881 65.0044 30.0847C65.0044 33.4158 60.5963 37.1661 53.3316 39.5731C47.8393 41.3927 40.6119 42.3427 33.0027 42.3427C25.2012 42.3427 17.8136 41.451 12.2594 39.5531C5.23244 37.1512 1 33.3524 1 30.0847C1 26.9141 4.97133 23.4112 11.6412 21.0857C17.2769 19.1209 24.9074 17.9458 33.0017 17.9458H33.0027Z" stroke="white" stroke-width="2"/>
<path fill-rule="evenodd" clip-rule="evenodd" d="M22.4356 24.0505C26.4403 17.1065 31.1566 11.2303 35.6361 7.33206C41.0331 2.63525 46.1692 0.795843 48.9382 2.39259C51.8239 4.05669 52.8705 9.74901 51.3264 17.2444C50.1601 22.9114 47.3712 29.6466 43.5698 36.2383C39.6723 42.9966 35.2094 48.9508 30.791 52.8129C25.1999 57.7004 19.7946 59.4691 16.9639 57.8366C14.2172 56.2538 13.1668 51.0626 14.4845 44.1229C15.5978 38.2593 18.3918 31.0622 22.4343 24.0503L22.4356 24.0505Z" stroke="white" stroke-width="2"/>
<path fill-rule="evenodd" clip-rule="evenodd" d="M22.4455 36.2562C18.4295 29.3201 15.6953 22.2979 14.554 16.4703C13.1801 9.44878 14.1515 4.08028 16.918 2.47889C19.8009 0.80991 25.2552 2.74595 30.9777 7.82716C35.3044 11.6688 39.7473 17.4475 43.5597 24.033C47.4684 30.7847 50.398 37.625 51.5376 43.3817C52.9796 50.6666 51.8125 56.2328 48.9845 57.8699C46.2405 59.4584 41.2192 57.7766 35.8649 53.169C31.341 49.2762 26.5011 43.2612 22.4455 36.256V36.2562Z" stroke="white" stroke-width="2"/>
<path d="M78 45.5825V18H88.3424C90.4612 18 92.2388 18.3681 93.6752 19.1044C95.1206 19.8406 96.2114 20.8732 96.9476 22.202C97.6928 23.5219 98.0653 25.0617 98.0653 26.8215C98.0653 28.5903 97.6883 30.1257 96.9341 31.4276C96.189 32.7205 95.0892 33.7217 93.6348 34.431C92.1804 35.1313 90.3938 35.4815 88.2751 35.4815H80.9088V31.3333H87.6017C88.8407 31.3333 89.8552 31.1627 90.6452 30.8215C91.4352 30.4714 92.0188 29.9641 92.3959 29.2997C92.7819 28.6263 92.9749 27.8002 92.9749 26.8215C92.9749 25.8429 92.7819 25.0079 92.3959 24.3165C92.0098 23.6162 91.4218 23.0864 90.6317 22.7273C89.8417 22.3591 88.8227 22.1751 87.5748 22.1751H82.9961V45.5825H78ZM92.2477 33.0842L99.0753 45.5825H93.5001L86.7937 33.0842H92.2477Z" fill="white"/>
<path d="M111.31 45.9865C109.236 45.9865 107.445 45.5556 105.937 44.6936C104.437 43.8227 103.284 42.5926 102.476 41.0034C101.668 39.4052 101.264 37.5241 101.264 35.3603C101.264 33.2323 101.668 31.3648 102.476 29.7576C103.293 28.1414 104.433 26.8844 105.896 25.9865C107.36 25.0797 109.079 24.6263 111.054 24.6263C112.329 24.6263 113.532 24.8328 114.663 25.2458C115.803 25.6498 116.809 26.2783 117.68 27.1313C118.559 27.9843 119.251 29.0707 119.753 30.3906C120.256 31.7015 120.508 33.2637 120.508 35.0774V36.5724H103.553V33.2862H115.835C115.826 32.3524 115.624 31.5219 115.229 30.7946C114.834 30.0584 114.281 29.4792 113.572 29.0572C112.872 28.6352 112.055 28.4242 111.121 28.4242C110.125 28.4242 109.249 28.6667 108.495 29.1515C107.741 29.6274 107.153 30.2559 106.731 31.037C106.318 31.8092 106.107 32.6577 106.098 33.5825V36.4512C106.098 37.6543 106.318 38.6869 106.758 39.5488C107.198 40.4018 107.813 41.0572 108.603 41.5152C109.393 41.9641 110.318 42.1886 111.377 42.1886C112.086 42.1886 112.728 42.0898 113.303 41.8923C113.877 41.6857 114.376 41.385 114.798 40.9899C115.22 40.5948 115.538 40.1055 115.754 39.5219L120.306 40.0337C120.018 41.2368 119.471 42.2873 118.663 43.1852C117.864 44.0741 116.84 44.7654 115.592 45.2593C114.344 45.7441 112.917 45.9865 111.31 45.9865Z" fill="white"/>
<path d="M130.584 46C129.273 46 128.093 45.7666 127.042 45.2997C126.001 44.8238 125.175 44.1235 124.564 43.1987C123.963 42.2739 123.662 41.1336 123.662 39.7778C123.662 38.6105 123.878 37.6453 124.309 36.8822C124.739 36.119 125.327 35.5084 126.073 35.0505C126.818 34.5926 127.657 34.2469 128.591 34.0135C129.534 33.771 130.508 33.596 131.513 33.4882C132.725 33.3625 133.708 33.2503 134.462 33.1515C135.217 33.0438 135.764 32.8822 136.105 32.6667C136.455 32.4422 136.63 32.0965 136.63 31.6296V31.5488C136.63 30.5342 136.33 29.7486 135.728 29.1919C135.127 28.6352 134.26 28.3569 133.129 28.3569C131.935 28.3569 130.988 28.6173 130.288 29.138C129.596 29.6588 129.13 30.2738 128.887 30.9832L124.335 30.3367C124.695 29.0797 125.287 28.0292 126.113 27.1852C126.939 26.3322 127.949 25.6947 129.143 25.2727C130.337 24.8418 131.657 24.6263 133.102 24.6263C134.099 24.6263 135.091 24.743 136.078 24.9764C137.066 25.2099 137.968 25.596 138.785 26.1347C139.602 26.6644 140.258 27.3872 140.751 28.303C141.254 29.2189 141.505 30.3636 141.505 31.7374V45.5825H136.819V42.7407H136.657C136.361 43.3154 135.944 43.8541 135.405 44.3569C134.875 44.8507 134.206 45.2503 133.398 45.5556C132.599 45.8519 131.661 46 130.584 46ZM131.85 42.4175C132.828 42.4175 133.677 42.2245 134.395 41.8384C135.113 41.4433 135.665 40.9226 136.051 40.2761C136.446 39.6296 136.644 38.9248 136.644 38.1616V35.7239C136.491 35.8496 136.231 35.9663 135.863 36.0741C135.504 36.1818 135.1 36.2761 134.651 36.3569C134.202 36.4377 133.758 36.5095 133.318 36.5724C132.878 36.6352 132.496 36.6891 132.173 36.734C131.446 36.8328 130.795 36.9944 130.22 37.2189C129.646 37.4433 129.192 37.7576 128.86 38.1616C128.528 38.5567 128.362 39.0685 128.362 39.697C128.362 40.5948 128.69 41.2727 129.345 41.7306C130 42.1886 130.835 42.4175 131.85 42.4175Z" fill="white"/>
<path d="M155.43 45.9865C153.365 45.9865 151.592 45.5331 150.111 44.6263C148.638 43.7194 147.503 42.4669 146.704 40.8687C145.914 39.2615 145.519 37.4119 145.519 35.3199C145.519 33.2189 145.922 31.3648 146.73 29.7576C147.538 28.1414 148.679 26.8844 150.151 25.9865C151.632 25.0797 153.383 24.6263 155.403 24.6263C157.082 24.6263 158.568 24.936 159.861 25.5556C161.162 26.1661 162.199 27.0325 162.971 28.1549C163.743 29.2682 164.183 30.5701 164.291 32.0606H159.632C159.443 31.064 158.994 30.2334 158.285 29.569C157.585 28.8956 156.646 28.5589 155.47 28.5589C154.474 28.5589 153.599 28.8283 152.844 29.367C152.09 29.8967 151.502 30.6599 151.08 31.6566C150.667 32.6532 150.461 33.8474 150.461 35.2391C150.461 36.6487 150.667 37.8608 151.08 38.8754C151.493 39.881 152.072 40.6577 152.817 41.2054C153.572 41.7441 154.456 42.0135 155.47 42.0135C156.189 42.0135 156.83 41.8788 157.396 41.6094C157.971 41.3311 158.451 40.9315 158.837 40.4108C159.223 39.89 159.488 39.257 159.632 38.5118H164.291C164.174 39.9753 163.743 41.2727 162.998 42.404C162.253 43.5264 161.239 44.4063 159.955 45.0438C158.671 45.6723 157.163 45.9865 155.43 45.9865Z" fill="white"/>
<path d="M178.623 24.8956V28.6667H166.732V24.8956H178.623ZM169.668 19.9394H174.543V39.3603C174.543 40.0157 174.641 40.5185 174.839 40.8687C175.045 41.2099 175.315 41.4433 175.647 41.569C175.979 41.6947 176.347 41.7576 176.751 41.7576C177.056 41.7576 177.335 41.7351 177.586 41.6902C177.846 41.6453 178.044 41.6049 178.179 41.569L179 45.3805C178.74 45.4703 178.367 45.569 177.882 45.6768C177.406 45.7845 176.823 45.8474 176.132 45.8653C174.911 45.9012 173.811 45.7172 172.832 45.3131C171.854 44.9001 171.077 44.2626 170.503 43.4007C169.937 42.5387 169.659 41.4613 169.668 40.1684V19.9394Z" fill="white"/>
</svg>
