<svg width="200" height="41" viewBox="0 0 200 41" fill="none" xmlns="http://www.w3.org/2000/svg">
<path fill-rule="evenodd" clip-rule="evenodd" d="M23.8467 27.3019C22.301 26.3079 20.315 25.5136 17.8426 24.8619L10.8755 23.2759C5.26781 22.0298 0.962934 19.0277 0.962934 12.627C0.962934 10.1924 1.75527 7.75773 3.22681 5.83224C3.22736 5.81256 3.22798 5.79287 3.22866 5.77318C5.66432 2.60116 9.85591 0.675293 14.9538 0.675293C23.8468 0.675293 28.9447 5.37668 30.2474 11.9473H22.2041C21.2978 9.3417 19.0887 7.30254 15.0671 7.30254C10.7056 7.35919 7.76011 9.85149 7.59018 13.8165C5.55411 12.5949 4.13281 10.6706 3.53676 8.46468C4.50305 12.2959 7.7423 14.7375 13.2545 16.1389L20.3349 17.7815C26.6789 19.2542 30.5307 22.8794 30.5307 28.7703C30.5873 31.3192 29.7377 33.8115 28.2083 35.8507C28.2083 33.5511 27.7422 31.6658 26.7392 30.1072C27.7378 31.6639 28.2083 33.5515 28.2083 35.8507C25.6593 39.0794 21.2978 40.8353 16.1433 40.8353C7.4769 40.8353 1.30279 36.5304 0 29.1102H8.32654C9.40276 32.5087 12.2349 34.0948 16.0867 34.0948C20.6732 34.1514 23.7881 31.6607 23.8467 27.3019ZM82.3592 12.922V40.2122H74.5424V1.29837H83.5487L100.712 27.864L100.712 25.8815V1.29837H108.528V40.2122H100.712L82.3592 12.922ZM33.4195 35.5108L39.5369 40.8353L58.6716 30.8685L62.1942 40.2122H70.4641L55.5669 1.29837H47.5236L33.4195 35.5108ZM51.3187 11.3808L47.5236 1.29837L56.1671 24.2252L43.7086 30.4062L51.3187 11.3808ZM161.433 8.43541L148.858 14.9633V40.2122H140.702L140.702 19.1976V10.9277L145.719 8.43541H140.702H128.24V1.29837H157.298L161.319 8.23872L161.433 8.43541ZM123.539 1.29837H115.439V40.2122H123.539V1.29837ZM185.393 25.4284V40.2122H177.35V25.4284L163.302 1.29837H172.139L181.598 17.8382L177.35 25.4278L190.944 1.29837H199.497L185.393 25.4284Z" fill="white"/>
</svg>
