<svg width="164" height="70" viewBox="0 0 164 70" fill="none" xmlns="http://www.w3.org/2000/svg">
<path fill-rule="evenodd" clip-rule="evenodd" d="M17.1377 31.7685C13.6038 30.4448 11.6671 29.4153 11.6671 27.7974C11.6671 26.4245 12.7806 25.6402 14.7656 25.6402C18.3965 25.6402 22.1239 27.0621 24.6899 28.3365L26.1422 19.2671C24.1089 18.2865 19.9454 16.6686 14.1847 16.6686C10.1181 16.6686 6.72908 17.7471 4.30875 19.7572C1.79111 21.8652 0.483994 24.9048 0.483994 28.5817C0.483994 35.249 4.50227 38.0927 11.0378 40.4948C15.2496 42.0144 16.6537 43.0932 16.6537 44.76C16.6537 46.3778 15.2979 47.3091 12.8289 47.3091C9.77901 47.3091 4.74445 45.7895 1.45235 43.8286L0 52.9962C2.80775 54.614 8.03619 56.2807 13.4585 56.2807C17.7669 56.2807 21.3495 55.2512 23.7702 53.2903C26.481 51.1331 27.885 47.9467 27.885 43.8286C27.885 37.0139 23.7702 34.1706 17.1377 31.7685ZM51.5281 26.4245L52.9805 17.404H45.3132V6.45355L35.0044 8.17139L33.5158 17.404L29.89 17.9997L28.5328 26.4245H33.5009V44.1228C33.5009 48.731 34.6628 51.9177 37.0348 53.8786C39.0198 55.4964 41.8759 56.2807 45.8941 56.2807C48.9924 56.2807 50.8804 55.7417 52.1875 55.3983V45.8384C51.4613 46.0347 49.8155 46.3778 48.7019 46.3778C46.3298 46.3778 45.3132 45.1523 45.3132 42.3579V26.4245H51.5281ZM74.5536 16.8771C71.1649 16.8771 68.4538 18.6788 67.3889 21.9144L66.6627 17.404H56.1575V55.5453H68.1633V30.7878C69.6643 28.9248 71.7942 28.2512 74.6989 28.2512C75.3285 28.2512 76.006 28.2512 76.8291 28.3982V17.1713C76.006 16.9753 75.2798 16.8771 74.5536 16.8771ZM85.7854 13.629C89.271 13.629 92.0787 10.7367 92.0787 7.20694C92.0787 3.62787 89.271 0.784546 85.7854 0.784546C82.2511 0.784546 79.4433 3.62787 79.4433 7.20694C79.4433 10.7367 82.2511 13.629 85.7854 13.629ZM79.7338 17.404H91.7883V55.5453H79.7338V17.404ZM125.949 20.8356C123.818 18.0412 120.865 16.6686 117.089 16.6686C113.604 16.6686 110.554 18.1394 107.697 21.228L107.068 17.404H96.5142V69.6645L108.52 67.6548V55.3983C110.36 55.9866 112.248 56.2807 113.942 56.2807C116.944 56.2807 121.301 55.4964 124.69 51.7707C127.933 48.1916 129.579 42.652 129.579 35.3472C129.579 28.8759 128.369 23.9735 125.949 20.8356ZM115.976 44.3676C115.007 46.2307 113.507 47.2113 111.764 47.2113C110.554 47.2113 109.488 46.9661 108.52 46.476V28.3365C110.554 26.1796 112.393 25.9344 113.071 25.9344C116.121 25.9344 117.622 29.2682 117.622 35.7884C117.622 39.5142 117.089 42.4068 115.976 44.3676ZM164 36.1314C164 30.0525 162.693 25.2479 160.127 21.8652C157.513 18.4335 153.591 16.6686 148.605 16.6686C138.39 16.6686 132.048 24.3165 132.048 36.5727C132.048 43.4363 133.743 48.5839 137.083 51.8685C140.085 54.81 144.393 56.2807 149.961 56.2807C155.092 56.2807 159.836 55.0552 162.838 53.0451L161.531 44.7111C158.578 46.3289 155.141 47.2113 151.268 47.2113C148.944 47.2113 147.346 46.7208 146.184 45.6913C144.926 44.6129 144.199 42.848 143.958 40.3477H163.855C163.903 39.7594 164 37.0139 164 36.1314ZM143.861 32.8958C144.199 27.454 145.652 24.9048 148.411 24.9048C151.122 24.9048 152.526 27.5033 152.72 32.8958H143.861Z" fill="white"/>
</svg>
