<svg width="145" height="54" viewBox="0 0 145 54" fill="none" xmlns="http://www.w3.org/2000/svg">
<path fill-rule="evenodd" clip-rule="evenodd" d="M38.5516 0.910767H49.0155H61.6825L30.8412 53.6438L0 0.910767H24.2324L30.8412 13.027L38.5516 0.910767ZM15.0076 5.31666H7.57263L30.8412 44.9697L53.9722 5.31666H46.5372L30.8412 32.5781L15.0076 5.31666ZM67.8227 11.2602C67.4083 11.509 67.2011 11.82 67.2011 12.1933C67.2011 12.243 67.2266 12.3425 67.2768 12.4918L74.9985 37.3106C75.2245 38.0321 75.8649 38.3929 76.9196 38.3929C77.9743 38.3929 78.6398 38.0321 78.916 37.3106L86.5626 12.4918C86.5626 12.4421 86.5689 12.3923 86.5815 12.3425C86.5941 12.2928 86.6003 12.2555 86.6003 12.2306C86.6003 11.8822 86.3931 11.5712 85.9788 11.2975C85.5644 11.0238 85.1187 10.887 84.6416 10.887C84.064 10.887 83.6873 11.1234 83.5115 11.5961L76.9196 33.7649L70.2899 11.5961C70.1393 11.1234 69.75 10.887 69.1222 10.887C68.6702 10.887 68.237 11.0114 67.8227 11.2602ZM86.8971 21.5982V31.3015C86.8971 33.2174 87.6318 34.8906 89.1008 36.3212C90.5699 37.7519 92.3214 38.4672 94.3555 38.4672C96.3645 38.4672 98.1035 37.7519 99.5726 36.3212C101.042 34.8906 101.776 33.2174 101.776 31.3015V21.5603C101.776 21.2618 101.632 21.0067 101.343 20.7952C101.054 20.5837 100.684 20.478 100.232 20.478C99.8048 20.478 99.4344 20.59 99.1205 20.8139C98.8066 21.0378 98.6496 21.2866 98.6496 21.5603V31.3015C98.6496 32.446 98.2227 33.4599 97.3689 34.3432C96.5151 35.2264 95.5107 35.6681 94.3555 35.6681C93.1752 35.6681 92.1582 35.2202 91.3043 34.3245C90.4505 33.4288 90.0236 32.4211 90.0236 31.3015V21.5982C90.0236 21.3245 89.8667 21.0695 89.5527 20.8331C89.2388 20.5968 88.881 20.4786 88.4792 20.4786C88.0523 20.4786 87.6819 20.5905 87.368 20.8145C87.0541 21.0384 86.8971 21.2996 86.8971 21.5982ZM104.332 27.3081V31.2269C104.332 33.3915 105.111 35.1395 106.668 36.4706C108.225 37.8017 110.234 38.4673 112.695 38.4673C114.377 38.4673 115.79 38.1687 116.932 37.5716C118.075 36.9745 118.646 36.3897 118.646 35.8175C118.646 35.4941 118.521 35.1768 118.27 34.8658C118.018 34.5548 117.717 34.3993 117.366 34.3993C117.14 34.3993 116.838 34.5175 116.461 34.7539C116.085 34.9902 115.589 35.2328 114.974 35.4816C114.358 35.7304 113.636 35.8548 112.808 35.8548C111.226 35.8548 109.939 35.4443 108.947 34.6232C107.955 33.8021 107.459 32.7073 107.459 31.3389V30.2193H115.708C116.236 30.2193 116.656 30.1944 116.97 30.1446C117.284 30.0949 117.623 29.9767 117.987 29.7901C118.351 29.6034 118.621 29.2925 118.797 28.857C118.973 28.4216 119.061 27.8431 119.061 27.1215C119.061 25.1559 118.345 23.52 116.914 22.2138C115.482 20.9075 113.787 20.2544 111.828 20.2544C109.769 20.2544 108.005 20.9511 106.536 22.3444C105.067 23.7378 104.332 25.3923 104.332 27.3081ZM114.428 28.1292H107.459L107.459 26.7856C107.459 25.6411 107.886 24.677 108.74 23.8932C109.593 23.1095 110.611 22.7176 111.791 22.7176C112.996 22.7176 114.013 23.1406 114.842 23.9866C115.671 24.8325 116.085 25.8153 116.085 26.935C116.085 27.4077 115.972 27.7249 115.746 27.8866C115.52 28.0484 115.08 28.1292 114.428 28.1292ZM121.203 35.0522C120.827 35.4379 120.638 35.9044 120.638 36.4517C120.638 36.9743 120.827 37.4283 121.203 37.814C121.58 38.1996 122.045 38.3925 122.597 38.3925C123.124 38.3925 123.576 38.1996 123.953 37.814C124.33 37.4283 124.518 36.9742 124.518 36.4517C124.518 35.9044 124.33 35.4379 123.953 35.0522C123.576 34.6666 123.124 34.4738 122.597 34.4738C122.045 34.4738 121.58 34.6666 121.203 35.0522ZM123.798 44.3826C123.547 44.6439 123.421 44.9735 123.421 45.3716C123.421 46.2674 123.961 46.7152 125.041 46.7152C126.773 46.7152 128.067 46.0808 128.921 44.8119C129.774 43.5429 130.201 41.8262 130.201 39.6615V21.5606C130.201 21.2372 130.051 20.9759 129.749 20.7769C129.448 20.5778 129.071 20.4783 128.619 20.4783C128.167 20.4783 127.797 20.5778 127.508 20.7769C127.219 20.9759 127.075 21.2372 127.075 21.5606V39.6615C127.075 41.1046 126.924 42.1869 126.623 42.9085C126.321 43.63 125.681 43.9908 124.702 43.9908C124.35 43.9908 124.049 44.1214 123.798 44.3826ZM127.225 12.6035C126.849 12.9518 126.66 13.3623 126.66 13.8351C126.66 14.3078 126.855 14.7246 127.244 15.0853C127.634 15.4461 128.092 15.6265 128.619 15.6265C129.147 15.6265 129.599 15.4461 129.975 15.0853C130.352 14.7246 130.54 14.3078 130.54 13.8351C130.54 13.3623 130.352 12.9518 129.975 12.6035C129.599 12.2551 129.147 12.081 128.619 12.081C128.067 12.081 127.602 12.2551 127.225 12.6035ZM132.852 34.6788C132.639 34.9898 132.532 35.307 132.532 35.6304C132.532 36.3022 133.135 36.9429 134.34 37.5525C135.545 38.1621 137.002 38.4669 138.709 38.4669C140.693 38.4669 142.238 38.019 143.343 37.1233C144.448 36.2276 145 35.0084 145 33.4658C145 32.2218 144.686 31.2079 144.058 30.4241C143.43 29.6404 142.665 29.0868 141.76 28.7633C140.856 28.4399 139.946 28.1662 139.03 27.9423C138.113 27.7183 137.341 27.4073 136.713 27.0092C136.085 26.6112 135.771 26.0637 135.771 25.3671C135.771 24.6953 136.054 24.0919 136.619 23.557C137.184 23.022 138.044 22.7546 139.199 22.7546C140.053 22.7546 140.913 22.935 141.779 23.2957C142.646 23.6565 143.129 23.8369 143.23 23.8369C143.581 23.8369 143.876 23.6503 144.115 23.2771C144.353 22.9039 144.473 22.568 144.473 22.2694C144.473 21.7469 143.92 21.2804 142.815 20.8699C141.71 20.4594 140.492 20.2541 139.161 20.2541C137.077 20.2541 135.526 20.7704 134.509 21.8029C133.492 22.8355 132.984 24.0609 132.984 25.479C132.984 26.6236 133.298 27.5441 133.926 28.2408C134.553 28.9375 135.319 29.4351 136.223 29.7337C137.127 30.0323 138.031 30.306 138.935 30.5548C139.839 30.8036 140.605 31.1705 141.233 31.6557C141.861 32.1409 142.175 32.794 142.175 33.6151C142.175 34.2869 141.892 34.8467 141.327 35.2946C140.762 35.7424 139.852 35.9664 138.596 35.9664C137.642 35.9664 136.814 35.8233 136.11 35.5372C135.407 35.251 134.867 34.9587 134.491 34.6601C134.114 34.3616 133.825 34.2123 133.624 34.2123C133.323 34.2123 133.066 34.3678 132.852 34.6788Z" fill="white"/>
</svg>
